<svg width="68" height="100" viewBox="0 0 68 100" fill="none" xmlns="http://www.w3.org/2000/svg">
<g id="Logo-3P-HP-250x100">
<path id="Vector" d="M34 81.1001C33.7111 81.1001 33.3741 81.1001 33.0852 81.1001L39.4408 63.5741H48.2038C49.7445 63.5741 51.4297 62.3703 51.9594 60.9259L58.8927 41.9073C60.0483 38.7776 58.2187 36.2257 54.9446 36.2257H42.763L32.5555 64.3444L26.7777 80.2816C13.0554 77.0075 2.7998 64.6815 2.7998 49.8999C2.7998 35.5998 12.4295 23.5146 25.574 19.8553L19.6036 36.2739L9.68503 63.5741H16.2814L24.7073 40.3665H29.6666L21.2407 63.5741H27.837L35.7333 41.9554C36.8889 38.8258 35.1074 36.2739 31.7852 36.2739H26.2L32.6037 18.7479C33.0852 18.7479 33.5185 18.6997 34 18.6997C51.2371 18.6997 65.2002 32.6628 65.2002 49.8999C65.2002 67.137 51.2371 81.1001 34 81.1001ZM52.8742 40.3665H47.9149L40.9334 59.4814H45.8927L52.8742 40.3665Z" fill="#FBFBFC"/>
</g>
</svg>
