<svg width="190" height="100" viewBox="0 0 190 100" fill="none" xmlns="http://www.w3.org/2000/svg">
<path d="M37.6369 35.6541H18.6123L15.6737 38.5464H37.6369C40.9943 38.5464 43.7003 41.1231 43.7003 44.2828V71.2544H46.732V44.2828C46.7785 39.4934 42.6731 35.6541 37.6369 35.6541ZM52.8386 71.2544V44.2828C52.8386 36.3305 46.0305 29.8694 37.6369 29.8694H24.4896L21.5509 32.7617H37.6369C44.3518 32.7617 49.8069 37.9119 49.8069 44.2828V71.2544H52.8386ZM37.6369 41.3905H12.7384L9.7998 44.2828H9.84634H9.7998V56.8442C9.7998 64.1621 15.5806 70.2173 23.0435 71.1224L25.8425 68.3653H25.0048C18.2899 68.3653 12.8348 63.17 12.8348 56.8442V44.2828H15.8665V56.8442C15.8665 61.5886 19.9686 65.473 25.0048 65.473H28.8277L31.7663 62.5806H25.0015C21.644 62.5806 18.9381 60.0039 18.9381 56.8442V44.2828H21.9698V56.8442C21.9698 58.4257 23.3228 59.7366 25.0015 59.7366H34.7016L37.6402 56.8893H25.0015V44.3279H37.6369V71.2995H40.6686V44.3279C40.6686 42.6563 39.3156 41.3905 37.6369 41.3905Z" fill="#FBFBFC"/>
<path d="M139.385 51.4655V45.8193H148.992H149.272V45.5488V43.7418V43.4713H148.992H139.385V38.0022H150.156H150.435V37.7317V35.9248V35.7444H150.156H137.098H136.819V36.015V53.5462V53.8167H137.098H150.296H150.575V53.5462V51.7393V51.4687H150.296H139.385V51.4655ZM74.3835 57.7011H74.2439L74.1508 57.7913L69.4404 64.6131L64.7299 57.7913L64.6369 57.7011H64.5903H63.0512H62.772V57.9717V71.0291V71.2997H63.0512H64.5438H64.823V71.0291V61.2699L69.2542 67.5957L69.3473 67.6858H69.4869H69.58H69.7196L69.8127 67.5957L74.2439 61.2699V71.0291V71.2997H74.5231H76.0622H76.3415V71.0291V57.9717V57.7011H76.0622H74.3835ZM152.862 69.4026V57.9266V57.656H152.583H151.043H150.764V57.9266V70.984V71.2546H151.043H157.898H158.177V70.984V69.628V69.3575H157.898H152.862V69.4026ZM64.4042 53.7717L64.4507 53.6364L66.5018 49.1626H76.0157L78.0667 53.6364L78.1133 53.7717H78.2994H80.4901H80.9089L80.7228 53.4109L72.5153 35.7444L72.4687 35.6091H72.2826H70.3712H70.185L70.1385 35.7444L61.8844 53.4109L61.6982 53.7717H62.1171H64.2147H64.4042ZM71.3053 38.772L74.9885 46.8146H67.5289L71.3053 38.772ZM85.6227 53.7717H85.9019V53.5011V47.5811H90.0506C93.7338 47.5811 97.4171 45.7291 97.4171 41.6161V41.571C97.4171 38.0473 94.6646 35.7412 90.3763 35.7412H83.6149H83.3356V36.0117V53.543V53.8135H83.6149L85.6227 53.7717ZM85.8554 38.0924H90.147C93.0856 38.0924 94.7643 39.4033 94.7643 41.6612V41.7063C94.7643 43.8739 92.8994 45.3201 90.0539 45.3201H85.8587L85.8554 38.0924ZM132.81 53.7717V53.5011V35.9699V35.7444H132.531H130.48H130.201V36.015V53.5462V53.8167H130.48H132.531L132.81 53.7717ZM165.594 63.5309C162.655 62.9447 162.143 62.2651 162.143 61.228V61.1829C162.143 60.0975 163.217 59.3309 164.756 59.3309C166.109 59.3309 167.322 59.7818 168.486 60.6869L168.718 60.8673L168.905 60.6418L169.792 59.5113L169.932 59.3309L169.746 59.1956C168.253 58.02 166.76 57.524 164.849 57.524C162.143 57.524 160.139 59.1505 160.139 61.3633V61.4084C160.139 63.94 162.05 64.8418 164.896 65.428C167.695 66.0142 168.206 66.6487 168.206 67.6408V67.6858C168.206 68.8615 167.086 69.6731 165.454 69.6731C163.729 69.6731 162.469 69.1771 161.023 67.9113L160.837 67.7309L160.65 67.9113L159.716 68.9967L159.577 69.1771L159.763 69.3575C161.442 70.8488 163.26 71.5251 165.451 71.5251C168.296 71.5251 170.301 69.8986 170.301 67.5957V67.5506C170.208 65.3829 168.808 64.2073 165.594 63.5309ZM160.228 53.7717C165.963 53.7717 170.115 49.9775 170.115 44.7822V44.7371C170.115 39.5418 165.966 35.7927 160.228 35.7927H153.932H153.653V36.0633V53.5945V53.8651H153.932L160.228 53.7717ZM156.266 38.0924H160.228C164.47 38.0924 167.455 40.8495 167.455 44.779V44.8241C167.455 48.7084 164.47 51.4655 160.228 51.4655H156.266V38.0924ZM86.2742 57.7462L86.1812 57.6109H86.0416H84.5955H84.4094L84.3628 57.7462L78.2064 70.8938L78.0202 71.2546H78.439H79.9782H80.1643L80.2574 71.1193L81.7965 67.8211H88.7907L90.2833 71.1193L90.3298 71.2546H90.516H92.1482H92.567L92.3808 70.8938L86.2742 57.7462ZM82.591 65.9691L85.2504 60.1844L87.9098 65.9691H82.591ZM127.308 53.7717V53.5011V51.6942V51.4236H127.076H119.148V35.9699V35.7444H118.868H116.817H116.538V36.015V53.5462V53.8167H116.817H127.076L127.308 53.7717ZM124.23 65.8338C126.421 65.2927 127.727 63.8466 127.727 61.8593V61.8142C127.727 60.7288 127.308 59.7367 126.607 59.0571C125.673 58.1521 124.277 57.656 122.598 57.656H116.817H116.538V57.9266V70.984V71.2546H116.817H118.356H118.636V70.984V66.1495H122.086L125.909 71.1193L126.002 71.2095H126.142H128.007H128.519L128.193 70.8037L124.23 65.8338ZM118.543 64.3426V59.5531H122.458C124.509 59.5531 125.63 60.4131 125.63 61.8561V61.9012C125.63 63.3924 124.37 64.3394 122.412 64.3394H118.543V64.3426ZM105.625 69.4026V65.3378H112.712H112.991V65.1124V63.7564V63.4858H112.712H105.625V59.508H113.599H113.879V59.2375V57.8815V57.6109H113.599H103.853H103.574V57.8815V70.9389V71.2095H103.853H113.692H113.972V70.9389V69.5829V69.3124H113.692L105.625 69.4026ZM130.759 57.7011H130.48V57.9717V71.0291V71.2997H130.759H132.298H132.577V71.0291V57.9717V57.7011H132.298H130.759ZM114.065 41.6161V41.571C114.065 38.0473 111.312 35.7412 107.024 35.7412H100.263H99.9834V36.0117V53.543V53.8135H100.263H102.314H102.593V53.543V47.6262H106.742C110.335 47.5811 114.065 45.7291 114.065 41.6161ZM102.546 38.0924H106.838C109.777 38.0924 111.455 39.4033 111.455 41.6612V41.7063C111.455 43.8739 109.59 45.3201 106.745 45.3201H102.546V38.0924ZM90.6589 57.7011H90.3797V57.9717V59.3277V59.5982H90.6589H94.9505V71.0291V71.2997H95.2297H96.7688H97.0481V71.0291V59.5982H101.34H101.619V59.3277V57.9717V57.7011H101.34H90.6589ZM142.696 57.7462L142.603 57.6109H142.417H140.971H140.785L140.738 57.7462L134.582 70.8938L134.396 71.2546H134.815H136.354H136.54L136.633 71.1193L138.172 67.8211H145.166L146.659 71.1193L146.705 71.2546H146.892H148.524H148.943L148.756 70.8938L142.696 57.7462ZM139.013 65.9691L141.672 60.1844L144.332 65.9691H139.013Z" fill="#FBFBFC"/>
<path d="M173.471 68.2752C173.471 66.5134 174.917 65.1123 176.736 65.1123C178.554 65.1123 180 66.5585 180 68.2752C180 69.9919 178.554 71.4381 176.736 71.4381C174.871 71.4381 173.471 69.9919 173.471 68.2752ZM179.721 68.2752C179.721 66.6938 178.461 65.3829 176.782 65.3829C175.103 65.3829 173.797 66.6938 173.797 68.2752C173.797 69.8567 175.057 71.1676 176.782 71.1676C178.414 71.1643 179.721 69.8567 179.721 68.2752ZM175.429 66.5585H176.922C177.341 66.5585 177.713 66.6938 177.902 66.9192C178.089 67.0545 178.182 67.28 178.182 67.5505C178.182 68.0916 177.809 68.4105 177.294 68.5007L178.321 69.8116H177.716L176.736 68.5909H175.898V69.8116H175.386L175.429 66.5585ZM176.922 68.1399C177.387 68.1399 177.713 67.9145 177.713 67.5537C177.713 67.193 177.434 67.0126 176.968 67.0126H175.988V68.1882H176.922V68.1399Z" fill="#FBFBFC"/>
</svg>
