<svg width="76" height="100" viewBox="0 0 76 100" fill="none" xmlns="http://www.w3.org/2000/svg">
<g id="Logo-3P-VSP-250x100">
<g id="Group 617">
<path id="Vector" d="M43.6675 27.6907C46.8207 26.2069 50.708 27.3232 52.3482 30.1825C53.9853 33.0437 52.7544 36.5664 49.5942 38.0499C46.44 39.5325 42.5488 38.4159 40.9117 35.555C39.2736 32.6938 40.5084 29.1739 43.6675 27.6907Z" fill="#FBFBFC"/>
<path id="Vector_2" d="M37.4514 17.7324C39.3221 17.4855 41.0564 18.663 41.3217 20.3593C41.5908 22.0515 40.2888 23.6241 38.4216 23.8669C36.551 24.1082 34.8121 22.9332 34.5492 21.2369C34.2787 19.5421 35.5804 17.9724 37.4514 17.7324Z" fill="#FBFBFC"/>
<path id="Vector_3" d="M70.8804 46.5072C69.4563 43.6429 66.9459 41.4779 63.8071 40.4056C60.6682 39.3379 57.2794 39.4924 54.2635 40.8401C51.2453 42.1868 48.9601 44.5718 47.8338 47.5493C47.2603 49.0659 47.1244 51.4607 47.1156 52.8744V72.6998H48.7314C49.6908 72.6998 50.1555 72.1832 50.1555 71.3546V59.3079C51.5395 60.8312 53.3136 62.003 55.3592 62.7009C58.4988 63.7707 61.8897 63.6163 64.9083 62.2651C67.9245 60.9199 70.2065 58.5356 71.3349 55.5575C72.463 52.5795 72.3002 49.3649 70.8804 46.5072ZM68.7884 54.6888C67.905 57.0221 66.119 58.8886 63.7555 59.9452C61.3891 61.0027 58.7334 61.1255 56.2761 60.2849C53.818 59.4472 52.1332 57.7518 51.0218 55.5079C49.9056 53.2676 49.7766 50.749 50.6613 48.4179C51.5444 46.0847 53.0514 44.2179 55.4157 43.1622C57.7789 42.1047 60.4332 41.9844 62.8927 42.8218C65.3497 43.6608 67.3176 45.3572 68.4338 47.6004C69.5473 49.8399 69.6714 52.3562 68.7884 54.6888ZM28.3249 46.2176C28.3249 43.909 31.1165 42.6779 33.2922 42.6614C35.7133 42.6419 36.878 43.2263 38.2177 44.7477C38.704 45.2978 39.2761 45.5207 40.0064 45.0954L41.5431 44.2283C41.5246 44.1942 41.5131 44.1639 41.4947 44.131C40.7922 42.8667 39.798 41.9352 38.5764 41.2638C37.1158 40.4652 35.3368 40.0626 33.2922 40.0626C29.4408 40.0626 25.2854 42.1313 25.2854 46.4589C25.2854 54.9193 39.1736 50.6391 39.1736 56.7467C39.1736 59.2928 36.4349 60.8325 33.7988 60.8325C31.4962 60.8325 29.2612 60.0149 27.6371 58.1844C27.0253 57.5453 26.4312 57.5586 25.7051 58.0123C25.6856 58.0256 24.3225 58.9101 24.3225 58.9101C24.3396 58.9397 24.3591 58.9653 24.3755 58.9934C25.1034 60.187 26.1035 61.1293 27.2916 61.8338C29.104 62.9093 31.3526 63.431 33.7503 63.431C38.2076 63.431 42.2131 61.1227 42.2131 56.5547C42.2131 47.5625 28.3249 52.2283 28.3249 46.2176ZM11.2583 59.7367L18.7385 41.4441C18.9386 40.9733 19.3566 40.6443 19.9865 40.6471H22.5101L13.4912 61.5638L13.349 61.8916L13.2866 62.0403C13.0844 62.4912 12.5949 62.8521 12.0525 62.8521H10.4579C9.91237 62.8521 9.42327 62.4849 9.22456 62.0403L9.16111 61.8916L9.01888 61.5638L0 40.6468H2.52359C3.15352 40.644 3.57151 40.973 3.77196 41.4438L11.2521 59.7364H11.2583V59.7367ZM72.7109 63.886C71.3817 63.886 70.3062 62.9118 70.3062 61.7091C70.3062 60.5126 71.3817 59.5384 72.7109 59.5384C74.0388 59.5384 75.1156 60.5126 75.1156 61.7091C75.1156 62.9118 74.0384 63.886 72.7109 63.886ZM72.7109 59.9401C71.6473 59.9401 70.7841 60.7343 70.7841 61.7091C70.7841 62.6902 71.6469 63.4843 72.7109 63.4843C73.7724 63.4843 74.6359 62.6898 74.6359 61.7091C74.6359 60.7343 73.7721 59.9401 72.7109 59.9401ZM73.9244 62.8581H73.3555L72.8765 62.0226H72.2305V62.8525H71.7348V60.4583H73.0013C73.5605 60.4583 73.9108 60.764 73.9108 61.2408C73.9108 61.5821 73.6929 61.8609 73.3621 61.9683L73.9244 62.8581ZM73.0086 61.6071C73.2146 61.6071 73.4217 61.5101 73.4217 61.2405C73.4217 60.9692 73.2617 60.8735 73.0086 60.8735H72.2309V61.6071H73.0086Z" fill="#FBFBFC"/>
</g>
</g>
</svg>
