<svg width="201" height="100" viewBox="0 0 201 100" fill="none" xmlns="http://www.w3.org/2000/svg">
<g id="Logo-3P-Tesco Bank-250x100">
<g id="Group 616">
<path id="Vector" fill-rule="evenodd" clip-rule="evenodd" d="M16.3607 61.3921H30.9877C31.1242 61.3921 31.1409 61.4645 30.977 61.5191C29.3393 62.1611 26.9623 64.1778 26.9623 64.1778C25.3255 65.5107 24.0308 66.35 21.2699 66.35H7.28856C7.19472 66.35 7.19472 66.274 7.25843 66.2403C8.80393 65.537 11.0861 63.4829 11.0861 63.4829C12.034 62.6079 13.9596 61.3921 16.3607 61.3921ZM112.366 61.3921H127.01C127.132 61.3921 127.153 61.4645 126.99 61.5191C125.352 62.1611 122.985 64.1778 122.985 64.1778C121.341 65.5107 120.042 66.35 117.294 66.35H103.303C103.207 66.35 103.207 66.274 103.28 66.2403C104.82 65.537 107.107 63.4829 107.107 63.4829C108.043 62.6079 109.975 61.3921 112.366 61.3921ZM40.3626 61.3921H54.9962C55.1237 61.3921 55.1472 61.4645 54.9768 61.5191C53.349 62.1611 50.9755 64.1778 50.9755 64.1778C49.3324 65.5107 48.0408 66.35 45.2766 66.35H31.2892C31.201 66.35 31.201 66.274 31.2597 66.2403C32.8084 65.537 35.0924 63.4829 35.0924 63.4829C36.034 62.6079 37.9662 61.3921 40.3626 61.3921ZM64.3701 61.3921H78.9946C79.1239 61.3921 79.1484 61.4645 78.9877 61.5191C77.3502 62.1611 74.9729 64.1778 74.9729 64.1778C73.3308 65.5107 72.0386 66.35 69.2781 66.35H55.2942C55.2022 66.35 55.2022 66.274 55.2728 66.2403C56.8177 65.537 59.1036 63.4829 59.1036 63.4829C60.0415 62.6079 61.9749 61.3921 64.3701 61.3921ZM88.3701 61.3921H103.005C103.136 61.3921 103.148 61.4645 102.987 61.5191C101.347 62.1611 98.9699 64.1778 98.9699 64.1778C97.3349 65.5107 96.0434 66.35 93.2872 66.35H79.3005C79.1973 66.35 79.1973 66.274 79.2647 66.2403C80.8206 65.537 83.0999 63.4829 83.0999 63.4829C84.0441 62.6079 85.9769 61.3921 88.3701 61.3921Z" fill="#FBFBFC"/>
<path id="Vector_2" fill-rule="evenodd" clip-rule="evenodd" d="M92.3358 37.4971C83.1319 37.4971 77.0309 41.4963 77.0309 47.5739C77.0309 53.1489 82.6121 56.8636 90.9909 56.8636C93.6893 56.8636 96.1305 56.5613 98.9535 55.9515V51.2504C96.9538 53.1548 94.569 53.9006 92.0141 53.9006C87.0722 53.9006 83.6884 51.1228 83.6884 47.1276C83.6884 43.1886 87.1981 40.3274 92.0973 40.3274C94.7646 40.3274 96.9133 41.1858 98.628 42.6996V37.9985C96.838 37.6693 94.6083 37.4971 92.3358 37.4971ZM23.096 40.7588C26.516 40.7871 30.6026 41.3394 32.3345 42.5439V38.0882H8.04688V42.5439C9.77505 41.3394 13.3858 40.8708 17.3236 40.8411V52.9949C17.3236 54.7706 17.1526 55.28 16.3221 56.2096H24.1161C23.2332 55.28 23.096 54.7706 23.096 52.9949V40.7588ZM48.3142 45.1307C46.9062 45.5383 44.4251 45.6593 43.0691 45.6593H41.0462V40.8399H43.7926C46.238 40.8399 50.4862 41.2989 52.087 42.4997V38.0882H34.4217C35.2321 39.0127 35.3978 39.5331 35.3978 41.2989V52.9948C35.3978 54.7706 35.2321 55.3062 34.459 56.2095H53.2919V51.7954C50.7138 53.4499 45.7929 53.4643 43.7926 53.4337H41.0462V48.3743H43.0641C44.4178 48.3743 46.8864 48.5069 48.3142 48.8913V45.1307Z" fill="#FBFBFC"/>
<path id="Vector_3" fill-rule="evenodd" clip-rule="evenodd" d="M74.5165 38.698C71.7406 37.9098 68.0558 37.4502 65.2507 37.4502C60.1422 37.4502 55.1626 38.819 55.1626 43.3875C55.1626 51.3124 70.4993 47.1214 70.4993 51.9725C70.4993 53.5426 67.7874 54.1928 65.5938 54.1928C61.6472 54.1928 58.9046 53.6603 55.4617 51.7983V55.7749C58.0333 56.5365 61.5449 56.9115 65.3402 56.9115C70.6368 56.9115 75.5856 55.6793 75.5856 50.9991C75.5856 42.7297 60.2514 46.441 60.2514 42.3906C60.2514 40.7588 62.7084 40.1861 64.8502 40.1861C68.4707 40.1861 72.38 41.1559 74.5165 42.9472V38.698Z" fill="#FBFBFC"/>
<path id="Vector_4" fill-rule="evenodd" clip-rule="evenodd" d="M126.269 47.0478C126.269 41.3286 121.272 37.4971 113.802 37.4971C105.865 37.4971 100.26 41.6066 100.26 47.4064C100.26 53.0889 105.292 56.865 112.797 56.865C120.76 56.865 126.269 52.8737 126.269 47.0478ZM106.351 47.1615C106.351 43.3377 109.045 40.2383 113.261 40.2383C117.417 40.2383 120.173 43.3377 120.173 47.1615C120.173 50.9868 117.417 54.0768 113.261 54.0768C109.045 54.0768 106.351 50.9868 106.351 47.1615Z" fill="#FBFBFC"/>
<path id="Vector_5" fill-rule="evenodd" clip-rule="evenodd" d="M143.7 47.662H139.072V54.4065H143.7C146.087 54.4065 147.502 53.0255 147.502 51.0337C147.502 49.0435 146.056 47.662 143.7 47.662ZM143.141 39.9074H139.072V45.8034H143.141C145.053 45.8034 146.381 44.6085 146.381 42.8294C146.381 40.8907 145.173 39.9074 143.141 39.9074ZM144.112 56.264H136.891C136.658 56.264 136.509 56.1579 136.509 55.9458V39.4566C136.509 38.8729 136.391 38.3415 136.185 38.0493H143.435C147.558 38.0493 149.122 40.094 149.122 42.3511C149.122 43.7055 148.71 45.4309 146.558 46.5203C149.358 47.3959 150.331 49.123 150.331 51.2192C150.331 53.928 148.002 56.264 144.112 56.264ZM160.702 50.4769C159.935 50.3442 158.609 50.1841 157.638 50.1841C155.427 50.1841 154.366 51.0071 154.366 52.5747C154.366 54.1146 155.457 54.7775 157.106 54.7775C159.052 54.7775 160.261 53.7953 160.702 53.2917V50.4769ZM161.143 56.2663C160.878 56.2663 160.731 56.1602 160.731 55.9458V55.0974C160.172 55.5745 158.876 56.5844 156.283 56.5844C153.422 56.5844 151.831 54.9914 151.831 52.6276C151.831 49.972 153.895 48.511 157.312 48.511C158.521 48.511 159.788 48.6437 160.702 48.7772V48.1397C160.702 46.1227 159.493 45.4575 157.195 45.4575C155.369 45.4575 154.013 46.0167 153.569 46.2817L153.128 45.2189C153.098 45.1128 153.01 44.9001 153.04 44.8738C152.951 44.5557 153.187 44.3953 153.569 44.2375C154.013 44.0506 155.574 43.5729 157.489 43.5729C161.852 43.5729 163.178 45.3515 163.178 47.9808V56.2663H161.143ZM175.672 56.2662C175.437 56.2662 175.289 56.1601 175.289 55.9457V48.6181C175.289 46.5997 174.463 45.5106 172.311 45.5106C170.544 45.5106 169.189 46.5203 168.423 47.503V56.2662H166.33C166.095 56.2662 165.946 56.1601 165.946 55.9457V47.1306C165.946 46.3336 165.889 45.5106 165.74 44.8206C165.681 44.4484 165.595 44.1302 165.475 43.891H167.45C167.744 43.891 167.862 43.997 167.921 44.1302C167.98 44.2629 168.039 44.4484 168.068 44.6339C168.127 44.9003 168.156 45.2188 168.188 45.4575C168.777 44.8472 170.368 43.5728 172.725 43.5728C176.29 43.5728 177.763 45.2448 177.763 48.1128V56.2662H175.672Z" fill="#FBFBFC"/>
<path id="Vector_6" fill-rule="evenodd" clip-rule="evenodd" d="M190.052 56.2659C189.757 56.2659 189.493 56.1841 189.169 55.866L182.98 50.1043V56.2659H180.886C180.651 56.2659 180.504 56.1598 180.504 55.9455V39.4562C180.504 38.8725 180.386 38.3411 180.092 38.049L181.682 37.9163C182.065 37.8897 182.389 37.864 182.538 37.864C182.833 37.864 182.98 37.9695 182.98 38.2085V48.9626L188.254 44.2889C188.607 43.9967 188.843 43.8907 189.137 43.8907H191.85L185.455 49.4142L193 56.2659H190.052Z" fill="#FBFBFC"/>
</g>
</g>
</svg>
