<svg width="138" height="100" viewBox="0 0 138 100" fill="none" xmlns="http://www.w3.org/2000/svg">
<g id="Logo-3P-TIAA-250x100">
<g id="Group 618">
<path id="Vector" d="M68.4647 35.6186V40.7698H59.329V65.4997H53.5557V40.7689H44.4209V35.6177H68.4647V35.6186ZM70.9194 65.4988H76.6946V50.5573V35.6186H70.9194V50.5582V65.4988ZM106.543 65.4988H100.601L97.5288 58.146H87.406L84.3694 65.4988H78.5598L91.2893 35.2183H93.8147L106.543 65.4988ZM134.526 65.4988H128.583L125.511 58.146H115.387L112.35 65.4988H106.542L119.272 35.2183H121.795L134.526 65.4988ZM95.549 53.2643L92.4961 45.8226L89.4203 53.2643H95.549ZM123.531 53.2643L120.479 45.8226L117.403 53.2643H123.531Z" fill="#FBFBFC"/>
<path id="Vector_2" d="M20.3556 31.1001C16.3634 31.1001 13.127 34.3288 13.1089 38.3162V40.77H28.1832V55.8395H30.6016C34.6043 55.8395 37.8483 52.5946 37.8483 48.5948V31.1001H20.3556Z" fill="#FBFBFC"/>
<path id="Union" fill-rule="evenodd" clip-rule="evenodd" d="M11.169 38.3467C11.169 36.7538 11.577 35.2536 12.2937 33.9465L12.1255 33.7783L5.62986 40.274C4.22429 41.6547 3.45031 43.4902 3.45031 45.4414V65.4985L3.4502 65.4986H3.45031V65.4988L3.45047 65.4986H23.5076C25.4597 65.4986 27.2943 64.7237 28.675 63.3181L35.1707 56.8225L35.0015 56.6543C33.6953 57.371 32.1952 57.779 30.6014 57.779H11.169V38.3467Z" fill="#FBFBFC"/>
</g>
</g>
</svg>
